<?xml version="1.0" encoding="UTF-8"?>
<svg fill="#FFFFFF" width="20pt" height="20pt" version="1.1" viewBox="0 0 100 100" xmlns="http://www.w3.org/2000/svg">
  <g>
    <path
      d="m100 12.5c0-6.9023-5.5977-12.5-12.5-12.5s-12.5 5.5977-12.5 12.5c0 2.8867 0.98828 5.5391 2.6328 7.6562l-7.4297 7.4297c-5.3398-4.5703-12.289-7.2734-19.77-7.2734-7.7734 0-14.867 2.918-20.215 7.6992l-7.8516-7.8555c1.6445-2.1172 2.6328-4.7695 2.6328-7.6562 0-6.9023-5.5977-12.5-12.5-12.5s-12.5 5.5977-12.5 12.5 5.5977 12.5 12.5 12.5c2.8867 0 5.5391-0.98828 7.6562-2.6328l7.8477 7.8477c-4.7773 5.2539-7.6914 12.188-7.6914 19.785s2.9141 14.531 7.6914 19.789l-7.8477 7.8438c-2.1172-1.6445-4.7695-2.6328-7.6562-2.6328-6.9023 0-12.5 5.5977-12.5 12.5s5.5977 12.5 12.5 12.5 12.5-5.5977 12.5-12.5c0-2.8867-0.98828-5.5391-2.6328-7.6562l7.8555-7.8555c5.3477 4.7812 12.441 7.6992 20.211 7.6992 7.4102 0 14.375-2.7227 19.738-7.3047l7.4609 7.4609c-1.6445 2.1172-2.6328 4.7695-2.6328 7.6562 0 6.9023 5.5977 12.5 12.5 12.5s12.5-5.5977 12.5-12.5-5.5977-12.5-12.5-12.5c-2.8867 0-5.5391 0.98828-7.6562 2.6328l-7.4023-7.4023c3.1641-3.3242 5.582-7.3789 6.9258-11.938 0.24219-0.82812-0.23047-1.6953-1.0586-1.9414-0.82812-0.24609-1.6953 0.23047-1.9414 1.0586-3.3203 11.277-13.984 19.152-25.934 19.152-14.887 0-26.996-11.914-26.996-26.562s12.109-26.562 26.996-26.562c12.383 0 23.148 8.2383 26.176 20.035 0.21484 0.83594 1.0664 1.3398 1.9023 1.125 0.83594-0.21484 1.3398-1.0664 1.125-1.9023-1.2773-4.9805-3.793-9.3906-7.168-12.957l7.3711-7.3711c2.1211 1.6445 4.7734 2.6328 7.6602 2.6328 6.9023 0 12.5-5.5977 12.5-12.5zm-87.5 9.375c-2.0391 0-3.918-0.66016-5.457-1.7695 0.10156-2.5664 2.0977-4.4805 4.7344-4.4805h1.4414c2.6367 0 4.6367 1.9141 4.7383 4.4805-1.5391 1.1094-3.418 1.7695-5.457 1.7695zm-1.5625-11.719c0-0.86328 0.69922-1.5625 1.5625-1.5625s1.5625 0.69922 1.5625 1.5625-0.69922 1.5625-1.5625 1.5625-1.5625-0.69922-1.5625-1.5625zm9.5781 7.1797c-0.79297-1.9609-2.3594-3.5039-4.3398-4.2773 0.63281-0.80078 1.0117-1.8086 1.0117-2.9023 0-2.5859-2.1016-4.6875-4.6875-4.6875s-4.6875 2.1016-4.6875 4.6875c0 1.0938 0.37891 2.1016 1.0117 2.8984-1.9844 0.77734-3.5469 2.3164-4.3398 4.2812-0.85547-1.4141-1.3594-3.0664-1.3594-4.8359 0-5.168 4.207-9.375 9.375-9.375s9.375 4.207 9.375 9.375c0 1.7695-0.50391 3.4219-1.3594 4.8359zm-8.0156 79.539c-2.0391 0-3.918-0.66016-5.457-1.7695 0.10156-2.5664 2.0977-4.4805 4.7344-4.4805h1.4414c2.6367 0 4.6367 1.9141 4.7383 4.4805-1.5391 1.1094-3.418 1.7695-5.457 1.7695zm-1.5625-11.719c0-0.86328 0.69922-1.5625 1.5625-1.5625s1.5625 0.69922 1.5625 1.5625-0.69922 1.5625-1.5625 1.5625-1.5625-0.69922-1.5625-1.5625zm9.5781 7.1797c-0.79297-1.9609-2.3594-3.5039-4.3398-4.2773 0.63281-0.80078 1.0117-1.8086 1.0117-2.9023 0-2.5859-2.1016-4.6875-4.6875-4.6875s-4.6875 2.1016-4.6875 4.6875c0 1.0938 0.37891 2.1016 1.0117 2.8984-1.9844 0.77734-3.5469 2.3164-4.3398 4.2773-0.85547-1.4102-1.3594-3.0625-1.3594-4.832 0-5.168 4.207-9.375 9.375-9.375s9.375 4.207 9.375 9.375c0 1.7695-0.50391 3.4219-1.3594 4.8359zm66.984 4.5391c-2.0391 0-3.918-0.66016-5.457-1.7695 0.10156-2.5664 2.1016-4.4805 4.7383-4.4805h1.4414c2.6367 0 4.6328 1.9141 4.7344 4.4805-1.5391 1.1094-3.418 1.7695-5.457 1.7695zm-1.5625-11.719c0-0.86328 0.69922-1.5625 1.5625-1.5625s1.5625 0.69922 1.5625 1.5625-0.69922 1.5625-1.5625 1.5625-1.5625-0.69922-1.5625-1.5625zm1.5625-7.0312c5.168 0 9.375 4.207 9.375 9.375 0 1.7695-0.50391 3.4219-1.3594 4.8359-0.79297-1.9609-2.3594-3.5039-4.3398-4.2773 0.63281-0.80078 1.0117-1.8086 1.0117-2.9023 0-2.5859-2.1016-4.6875-4.6875-4.6875s-4.6875 2.1016-4.6875 4.6875c0 1.0938 0.37891 2.1016 1.0117 2.8984-1.9844 0.77734-3.5469 2.3164-4.3398 4.2773-0.85547-1.4102-1.3594-3.0625-1.3594-4.832 0-5.168 4.207-9.375 9.375-9.375zm-8.0156-60.789c-0.85547-1.4141-1.3594-3.0664-1.3594-4.8359 0-5.168 4.207-9.375 9.375-9.375s9.375 4.207 9.375 9.375c0 1.7695-0.50391 3.4219-1.3594 4.8359-0.79297-1.9609-2.3594-3.5039-4.3398-4.2773 0.63281-0.80078 1.0117-1.8086 1.0117-2.9023 0-2.5859-2.1016-4.6875-4.6875-4.6875s-4.6875 2.1016-4.6875 4.6875c0 1.0938 0.37891 2.1016 1.0117 2.8984-1.9844 0.77734-3.5469 2.3164-4.3398 4.2812zm9.5781-7.1797c0 0.86328-0.69922 1.5625-1.5625 1.5625s-1.5625-0.69922-1.5625-1.5625 0.69922-1.5625 1.5625-1.5625 1.5625 0.69922 1.5625 1.5625zm-2.2812 5.4688h1.4414c2.6367 0 4.6328 1.9141 4.7344 4.4805-1.5391 1.1094-3.418 1.7695-5.457 1.7695s-3.918-0.66016-5.457-1.7695c0.10156-2.5664 2.1016-4.4805 4.7383-4.4805z"/>
    <path
      d="m59.477 69.621c-0.007812 0.86328 0.68359 1.5703 1.5469 1.5781h0.015624c0.85547 0 1.5547-0.69141 1.5625-1.5469 0.023438-2.5703-0.54297-5.1602-1.7383-7.9258-1.1133-2.582-2.8242-5.1602-4.9414-7.457-1.1797-1.2773-2.4805-2.5195-3.7891-3.7305 5.4688-5.0469 11.148-10.867 10.398-19.715-0.074219-0.85938-0.83203-1.4922-1.6875-1.4258-0.85938 0.074218-1.4961 0.82812-1.4258 1.6875 0.63672 7.4961-4.1953 12.359-9.5938 17.328-5.4023-4.9648-10.23-9.832-9.5938-17.328 0.074219-0.85938-0.56641-1.6172-1.4258-1.6875-0.85156-0.070313-1.6172 0.56641-1.6875 1.4258-0.75 8.8438 4.9297 14.664 10.398 19.715-1.3086 1.2109-2.6055 2.4492-3.7891 3.7266-2.1172 2.2969-3.8281 4.875-4.9414 7.457-1.1914 2.7656-1.7617 5.3555-1.7383 7.9258 0.007813 0.85937 0.70703 1.5469 1.5625 1.5469h0.015625c0.86328-0.007812 1.5547-0.71484 1.5469-1.5781-0.019531-2.125 0.46484-4.3047 1.4805-6.6602 0.96094-2.2305 2.5117-4.5664 4.3672-6.5742 1.168-1.2656 2.4531-2.4844 3.8008-3.7266 1.3516 1.2461 2.6328 2.4609 3.8008 3.7266 1.8555 2.0078 3.4062 4.3438 4.3672 6.5742 1.0195 2.3594 1.5078 4.5391 1.4883 6.6641z"/>
    <path d="m56.25 31.25c0-0.86328-0.69922-1.5625-1.5625-1.5625h-9.375c-0.86328 0-1.5625 0.69922-1.5625 1.5625s0.69922 1.5625 1.5625 1.5625h9.375c0.86328 0 1.5625-0.69922 1.5625-1.5625z"/>
    <path d="m54.688 35.938c0-0.86328-0.69922-1.5625-1.5625-1.5625h-6.25c-0.86328 0-1.5625 0.69922-1.5625 1.5625s0.69922 1.5625 1.5625 1.5625h6.25c0.86328 0 1.5625-0.69922 1.5625-1.5625z"/>
    <path d="m48.438 39.062c-0.86328 0-1.5625 0.69922-1.5625 1.5625s0.69922 1.5625 1.5625 1.5625h3.125c0.86328 0 1.5625-0.69922 1.5625-1.5625s-0.69922-1.5625-1.5625-1.5625z"/>
    <path d="m43.75 69.531c0 0.86328 0.69922 1.5625 1.5625 1.5625h9.375c0.86328 0 1.5625-0.69922 1.5625-1.5625s-0.69922-1.5625-1.5625-1.5625h-9.375c-0.86328 0-1.5625 0.69922-1.5625 1.5625z"/>
    <path d="m45.312 64.844c0 0.86328 0.69922 1.5625 1.5625 1.5625h6.25c0.86328 0 1.5625-0.69922 1.5625-1.5625s-0.69922-1.5625-1.5625-1.5625h-6.25c-0.86328 0-1.5625 0.69922-1.5625 1.5625z"/>
    <path d="m51.562 61.719c0.86328 0 1.5625-0.69922 1.5625-1.5625s-0.69922-1.5625-1.5625-1.5625h-3.125c-0.86328 0-1.5625 0.69922-1.5625 1.5625s0.69922 1.5625 1.5625 1.5625z"/>
    <path d="m80.469 50.781c0 2.082-3.125 2.082-3.125 0s3.125-2.082 3.125 0"/>
  </g>
</svg>
